<mxfile host="app.diagrams.net" modified="2023-09-24T23:13:20.242Z" agent="Mozilla/5.0 (Windows NT 10.0; Win64; x64) AppleWebKit/537.36 (KHTML, like Gecko) Chrome/117.0.0.0 Safari/537.36" etag="OBYzFDgD9XgW-_gPklYM" version="21.8.2" type="device" pages="4">
  <diagram name="Person" id="mOvNx-SHtdPKEW5Wv6UG">
    <mxGraphModel dx="1120" dy="632" grid="1" gridSize="10" guides="1" tooltips="1" connect="1" arrows="1" fold="1" page="1" pageScale="1" pageWidth="827" pageHeight="1169" math="0" shadow="0">
      <root>
        <mxCell id="0" />
        <mxCell id="1" parent="0" />
        <mxCell id="ksLlhlK2cp5B85Cn4NFc-2" value="&lt;p style=&quot;margin:0px;margin-top:4px;text-align:center;&quot;&gt;&lt;i&gt;&amp;lt;&amp;lt;Interface&amp;gt;&amp;gt;&lt;/i&gt;&lt;br&gt;&lt;i style=&quot;border-color: var(--border-color);&quot;&gt;&lt;b&gt;IPersonRepository&lt;/b&gt;&lt;/i&gt;&lt;/p&gt;&lt;hr size=&quot;1&quot;&gt;&lt;p style=&quot;margin:0px;margin-left:4px;&quot;&gt;+ TotalObjectsPerson()&lt;/p&gt;&lt;p style=&quot;margin:0px;margin-left:4px;&quot;&gt;+TotalCompanyItems()&lt;/p&gt;" style="verticalAlign=top;align=left;overflow=fill;fontSize=12;fontFamily=Helvetica;html=1;whiteSpace=wrap;" parent="1" vertex="1">
          <mxGeometry x="590" y="510" width="190" height="90" as="geometry" />
        </mxCell>
        <mxCell id="CWx7Grt0ZWKzgmNsFGEg-1" value="&lt;p style=&quot;margin:0px;margin-top:4px;text-align:center;&quot;&gt;&lt;i&gt;&amp;lt;&amp;lt;Interface&amp;gt;&amp;gt;&lt;/i&gt;&lt;br&gt;&lt;i style=&quot;border-color: var(--border-color);&quot;&gt;&lt;b&gt;IPersonService&lt;/b&gt;&lt;/i&gt;&lt;br&gt;&lt;/p&gt;&lt;hr size=&quot;1&quot;&gt;&lt;p style=&quot;border-color: var(--border-color); margin: 0px 0px 0px 4px;&quot;&gt;+ All()&lt;br style=&quot;border-color: var(--border-color);&quot;&gt;+ FinfById()&lt;/p&gt;&lt;p style=&quot;border-color: var(--border-color); margin: 0px 0px 0px 4px;&quot;&gt;+ Save()&lt;/p&gt;&lt;p style=&quot;border-color: var(--border-color); margin: 0px 0px 0px 4px;&quot;&gt;+ Update()&amp;nbsp;&lt;/p&gt;&lt;p style=&quot;border-color: var(--border-color); margin: 0px 0px 0px 4px;&quot;&gt;+ Delete()&lt;/p&gt;" style="verticalAlign=top;align=left;overflow=fill;fontSize=12;fontFamily=Helvetica;html=1;whiteSpace=wrap;" parent="1" vertex="1">
          <mxGeometry x="20" y="250" width="190" height="140" as="geometry" />
        </mxCell>
        <mxCell id="CWx7Grt0ZWKzgmNsFGEg-2" value="Persons" style="swimlane;fontStyle=1;align=center;verticalAlign=top;childLayout=stackLayout;horizontal=1;startSize=26;horizontalStack=0;resizeParent=1;resizeParentMax=0;resizeLast=0;collapsible=1;marginBottom=0;whiteSpace=wrap;html=1;" parent="1" vertex="1">
          <mxGeometry x="330" y="260" width="160" height="218" as="geometry" />
        </mxCell>
        <mxCell id="CWx7Grt0ZWKzgmNsFGEg-3" value="+ Name: String&lt;br&gt;+ First_surname: String&lt;br&gt;+ Second_surname: String&lt;br&gt;+ Dni: String&lt;br&gt;+ Phone: String&lt;br&gt;+ Email: String&lt;br&gt;+ Employee: Boolean&lt;br&gt;&lt;br&gt;//Setter and Getter" style="text;strokeColor=none;fillColor=none;align=left;verticalAlign=top;spacingLeft=4;spacingRight=4;overflow=hidden;rotatable=0;points=[[0,0.5],[1,0.5]];portConstraint=eastwest;whiteSpace=wrap;html=1;" parent="CWx7Grt0ZWKzgmNsFGEg-2" vertex="1">
          <mxGeometry y="26" width="160" height="144" as="geometry" />
        </mxCell>
        <mxCell id="CWx7Grt0ZWKzgmNsFGEg-4" value="" style="line;strokeWidth=1;fillColor=none;align=left;verticalAlign=middle;spacingTop=-1;spacingLeft=3;spacingRight=3;rotatable=0;labelPosition=right;points=[];portConstraint=eastwest;strokeColor=inherit;" parent="CWx7Grt0ZWKzgmNsFGEg-2" vertex="1">
          <mxGeometry y="170" width="160" height="8" as="geometry" />
        </mxCell>
        <mxCell id="CWx7Grt0ZWKzgmNsFGEg-5" value="+ SetEmployee ()&lt;br&gt;+ ToDTO(PersonDTO)" style="text;strokeColor=none;fillColor=none;align=left;verticalAlign=top;spacingLeft=4;spacingRight=4;overflow=hidden;rotatable=0;points=[[0,0.5],[1,0.5]];portConstraint=eastwest;whiteSpace=wrap;html=1;" parent="CWx7Grt0ZWKzgmNsFGEg-2" vertex="1">
          <mxGeometry y="178" width="160" height="40" as="geometry" />
        </mxCell>
        <mxCell id="CWx7Grt0ZWKzgmNsFGEg-6" value="PersonDTO" style="swimlane;fontStyle=1;align=center;verticalAlign=top;childLayout=stackLayout;horizontal=1;startSize=26;horizontalStack=0;resizeParent=1;resizeParentMax=0;resizeLast=0;collapsible=1;marginBottom=0;whiteSpace=wrap;html=1;" parent="1" vertex="1">
          <mxGeometry x="630" y="250" width="160" height="204" as="geometry" />
        </mxCell>
        <mxCell id="CWx7Grt0ZWKzgmNsFGEg-7" value="+ Name: String&lt;br style=&quot;border-color: var(--border-color);&quot;&gt;+ First_surname: String&lt;br style=&quot;border-color: var(--border-color);&quot;&gt;+ Second_surname: String&lt;br style=&quot;border-color: var(--border-color);&quot;&gt;+ Dni: String&lt;br style=&quot;border-color: var(--border-color);&quot;&gt;+ Phone: String&lt;br style=&quot;border-color: var(--border-color);&quot;&gt;+ Email: String&lt;br style=&quot;border-color: var(--border-color);&quot;&gt;+ Employee: Boolean&lt;br&gt;&lt;br&gt;&amp;nbsp;//Setter and Getter" style="text;strokeColor=none;fillColor=none;align=left;verticalAlign=top;spacingLeft=4;spacingRight=4;overflow=hidden;rotatable=0;points=[[0,0.5],[1,0.5]];portConstraint=eastwest;whiteSpace=wrap;html=1;" parent="CWx7Grt0ZWKzgmNsFGEg-6" vertex="1">
          <mxGeometry y="26" width="160" height="144" as="geometry" />
        </mxCell>
        <mxCell id="CWx7Grt0ZWKzgmNsFGEg-8" value="" style="line;strokeWidth=1;fillColor=none;align=left;verticalAlign=middle;spacingTop=-1;spacingLeft=3;spacingRight=3;rotatable=0;labelPosition=right;points=[];portConstraint=eastwest;strokeColor=inherit;" parent="CWx7Grt0ZWKzgmNsFGEg-6" vertex="1">
          <mxGeometry y="170" width="160" height="8" as="geometry" />
        </mxCell>
        <mxCell id="CWx7Grt0ZWKzgmNsFGEg-9" value="+ PersonDTO()" style="text;strokeColor=none;fillColor=none;align=left;verticalAlign=top;spacingLeft=4;spacingRight=4;overflow=hidden;rotatable=0;points=[[0,0.5],[1,0.5]];portConstraint=eastwest;whiteSpace=wrap;html=1;" parent="CWx7Grt0ZWKzgmNsFGEg-6" vertex="1">
          <mxGeometry y="178" width="160" height="26" as="geometry" />
        </mxCell>
        <mxCell id="CWx7Grt0ZWKzgmNsFGEg-10" value="PersonService" style="swimlane;fontStyle=1;align=center;verticalAlign=top;childLayout=stackLayout;horizontal=1;startSize=22;horizontalStack=0;resizeParent=1;resizeParentMax=0;resizeLast=0;collapsible=1;marginBottom=0;whiteSpace=wrap;html=1;" parent="1" vertex="1">
          <mxGeometry x="50" y="536" width="160" height="40" as="geometry" />
        </mxCell>
        <mxCell id="CWx7Grt0ZWKzgmNsFGEg-12" value="" style="line;strokeWidth=1;fillColor=none;align=left;verticalAlign=middle;spacingTop=-1;spacingLeft=3;spacingRight=3;rotatable=0;labelPosition=right;points=[];portConstraint=eastwest;strokeColor=inherit;" parent="CWx7Grt0ZWKzgmNsFGEg-10" vertex="1">
          <mxGeometry y="22" width="160" height="18" as="geometry" />
        </mxCell>
        <mxCell id="CWx7Grt0ZWKzgmNsFGEg-14" value="PersonController" style="swimlane;fontStyle=1;align=center;verticalAlign=top;childLayout=stackLayout;horizontal=1;startSize=26;horizontalStack=0;resizeParent=1;resizeParentMax=0;resizeLast=0;collapsible=1;marginBottom=0;whiteSpace=wrap;html=1;" parent="1" vertex="1">
          <mxGeometry x="320" y="40" width="160" height="130" as="geometry" />
        </mxCell>
        <mxCell id="CWx7Grt0ZWKzgmNsFGEg-15" value="+ field: type" style="text;strokeColor=none;fillColor=none;align=left;verticalAlign=top;spacingLeft=4;spacingRight=4;overflow=hidden;rotatable=0;points=[[0,0.5],[1,0.5]];portConstraint=eastwest;whiteSpace=wrap;html=1;" parent="CWx7Grt0ZWKzgmNsFGEg-14" vertex="1">
          <mxGeometry y="26" width="160" height="6" as="geometry" />
        </mxCell>
        <mxCell id="CWx7Grt0ZWKzgmNsFGEg-16" value="" style="line;strokeWidth=1;fillColor=none;align=left;verticalAlign=middle;spacingTop=-1;spacingLeft=3;spacingRight=3;rotatable=0;labelPosition=right;points=[];portConstraint=eastwest;strokeColor=inherit;" parent="CWx7Grt0ZWKzgmNsFGEg-14" vertex="1">
          <mxGeometry y="32" width="160" height="8" as="geometry" />
        </mxCell>
        <mxCell id="CWx7Grt0ZWKzgmNsFGEg-17" value="&lt;p style=&quot;border-color: var(--border-color); margin: 0px 0px 0px 4px;&quot;&gt;+ All()&lt;br style=&quot;border-color: var(--border-color);&quot;&gt;+ FinfById()&lt;/p&gt;&lt;p style=&quot;border-color: var(--border-color); margin: 0px 0px 0px 4px;&quot;&gt;+ Save()&lt;/p&gt;&lt;p style=&quot;border-color: var(--border-color); margin: 0px 0px 0px 4px;&quot;&gt;+ Update()&lt;/p&gt;&lt;p style=&quot;border-color: var(--border-color); margin: 0px 0px 0px 4px;&quot;&gt;+ Delete()&lt;/p&gt;&lt;p style=&quot;border-color: var(--border-color); margin: 0px 0px 0px 4px;&quot;&gt;&lt;br&gt;&lt;/p&gt;" style="text;strokeColor=none;fillColor=none;align=left;verticalAlign=top;spacingLeft=4;spacingRight=4;overflow=hidden;rotatable=0;points=[[0,0.5],[1,0.5]];portConstraint=eastwest;whiteSpace=wrap;html=1;" parent="CWx7Grt0ZWKzgmNsFGEg-14" vertex="1">
          <mxGeometry y="40" width="160" height="90" as="geometry" />
        </mxCell>
        <mxCell id="CWx7Grt0ZWKzgmNsFGEg-18" value="&amp;lt;&amp;lt;Abstract&amp;gt;&amp;gt;&lt;br&gt;&lt;b&gt;GenericId&lt;/b&gt;" style="swimlane;fontStyle=0;childLayout=stackLayout;horizontal=1;startSize=26;fillColor=none;horizontalStack=0;resizeParent=1;resizeParentMax=0;resizeLast=0;collapsible=1;marginBottom=0;whiteSpace=wrap;html=1;" parent="1" vertex="1">
          <mxGeometry x="330" y="530" width="140" height="52" as="geometry" />
        </mxCell>
        <mxCell id="CWx7Grt0ZWKzgmNsFGEg-19" value="+ Id: Long" style="text;strokeColor=none;fillColor=none;align=left;verticalAlign=top;spacingLeft=4;spacingRight=4;overflow=hidden;rotatable=0;points=[[0,0.5],[1,0.5]];portConstraint=eastwest;whiteSpace=wrap;html=1;" parent="CWx7Grt0ZWKzgmNsFGEg-18" vertex="1">
          <mxGeometry y="26" width="140" height="26" as="geometry" />
        </mxCell>
        <mxCell id="CWx7Grt0ZWKzgmNsFGEg-22" value="Extends" style="endArrow=block;endSize=16;endFill=0;html=1;rounded=0;" parent="1" source="CWx7Grt0ZWKzgmNsFGEg-2" target="CWx7Grt0ZWKzgmNsFGEg-18" edge="1">
          <mxGeometry width="160" relative="1" as="geometry">
            <mxPoint x="340" y="480" as="sourcePoint" />
            <mxPoint x="440" y="110" as="targetPoint" />
          </mxGeometry>
        </mxCell>
        <mxCell id="CWx7Grt0ZWKzgmNsFGEg-23" value="Implements" style="endArrow=block;endSize=16;endFill=0;html=1;rounded=0;" parent="1" target="CWx7Grt0ZWKzgmNsFGEg-1" edge="1" source="CWx7Grt0ZWKzgmNsFGEg-10">
          <mxGeometry width="160" relative="1" as="geometry">
            <mxPoint x="165" y="566" as="sourcePoint" />
            <mxPoint x="500" y="180" as="targetPoint" />
          </mxGeometry>
        </mxCell>
        <mxCell id="CWx7Grt0ZWKzgmNsFGEg-24" value="Use" style="endArrow=open;endSize=12;dashed=1;html=1;rounded=0;" parent="1" source="CWx7Grt0ZWKzgmNsFGEg-14" target="CWx7Grt0ZWKzgmNsFGEg-1" edge="1">
          <mxGeometry width="160" relative="1" as="geometry">
            <mxPoint x="340" y="280" as="sourcePoint" />
            <mxPoint x="500" y="280" as="targetPoint" />
          </mxGeometry>
        </mxCell>
        <mxCell id="CWx7Grt0ZWKzgmNsFGEg-25" value="Use" style="endArrow=open;endSize=12;dashed=1;html=1;rounded=0;entryX=0.344;entryY=-0.005;entryDx=0;entryDy=0;entryPerimeter=0;" parent="1" source="CWx7Grt0ZWKzgmNsFGEg-14" target="CWx7Grt0ZWKzgmNsFGEg-6" edge="1">
          <mxGeometry width="160" relative="1" as="geometry">
            <mxPoint x="340" y="280" as="sourcePoint" />
            <mxPoint x="500" y="280" as="targetPoint" />
          </mxGeometry>
        </mxCell>
        <mxCell id="CWx7Grt0ZWKzgmNsFGEg-26" value="Use" style="endArrow=open;endSize=12;dashed=1;html=1;rounded=0;" parent="1" source="CWx7Grt0ZWKzgmNsFGEg-14" target="CWx7Grt0ZWKzgmNsFGEg-2" edge="1">
          <mxGeometry width="160" relative="1" as="geometry">
            <mxPoint x="340" y="280" as="sourcePoint" />
            <mxPoint x="500" y="280" as="targetPoint" />
          </mxGeometry>
        </mxCell>
        <mxCell id="CWx7Grt0ZWKzgmNsFGEg-28" value="Use" style="endArrow=open;endSize=12;dashed=1;html=1;rounded=0;" parent="1" source="CWx7Grt0ZWKzgmNsFGEg-10" target="CWx7Grt0ZWKzgmNsFGEg-2" edge="1">
          <mxGeometry width="160" relative="1" as="geometry">
            <mxPoint x="340" y="400" as="sourcePoint" />
            <mxPoint x="500" y="400" as="targetPoint" />
          </mxGeometry>
        </mxCell>
        <mxCell id="CWx7Grt0ZWKzgmNsFGEg-29" value="Use" style="endArrow=open;endSize=12;dashed=1;html=1;rounded=0;" parent="1" source="CWx7Grt0ZWKzgmNsFGEg-1" target="CWx7Grt0ZWKzgmNsFGEg-2" edge="1">
          <mxGeometry width="160" relative="1" as="geometry">
            <mxPoint x="340" y="400" as="sourcePoint" />
            <mxPoint x="500" y="400" as="targetPoint" />
          </mxGeometry>
        </mxCell>
        <mxCell id="CWx7Grt0ZWKzgmNsFGEg-30" value="Use" style="endArrow=open;endSize=12;dashed=1;html=1;rounded=0;" parent="1" source="ksLlhlK2cp5B85Cn4NFc-2" target="CWx7Grt0ZWKzgmNsFGEg-2" edge="1">
          <mxGeometry width="160" relative="1" as="geometry">
            <mxPoint x="340" y="600" as="sourcePoint" />
            <mxPoint x="500" y="600" as="targetPoint" />
          </mxGeometry>
        </mxCell>
        <mxCell id="CWx7Grt0ZWKzgmNsFGEg-31" value="JpaRepository" style="ellipse;whiteSpace=wrap;html=1;" parent="1" vertex="1">
          <mxGeometry x="330" y="640" width="140" height="70" as="geometry" />
        </mxCell>
        <mxCell id="CWx7Grt0ZWKzgmNsFGEg-32" value="Use" style="endArrow=open;endSize=12;dashed=1;html=1;rounded=0;" parent="1" source="ksLlhlK2cp5B85Cn4NFc-2" target="CWx7Grt0ZWKzgmNsFGEg-31" edge="1">
          <mxGeometry width="160" relative="1" as="geometry">
            <mxPoint x="340" y="600" as="sourcePoint" />
            <mxPoint x="500" y="600" as="targetPoint" />
          </mxGeometry>
        </mxCell>
        <mxCell id="CWx7Grt0ZWKzgmNsFGEg-33" value="Use" style="endArrow=open;endSize=12;dashed=1;html=1;rounded=0;" parent="1" source="CWx7Grt0ZWKzgmNsFGEg-2" target="CWx7Grt0ZWKzgmNsFGEg-6" edge="1">
          <mxGeometry width="160" relative="1" as="geometry">
            <mxPoint x="340" y="300" as="sourcePoint" />
            <mxPoint x="500" y="300" as="targetPoint" />
          </mxGeometry>
        </mxCell>
      </root>
    </mxGraphModel>
  </diagram>
  <diagram id="QPbNEcfPttdwV0b6lFSF" name="TypeOfObject">
    <mxGraphModel dx="952" dy="537" grid="1" gridSize="10" guides="1" tooltips="1" connect="1" arrows="1" fold="1" page="1" pageScale="1" pageWidth="827" pageHeight="1169" math="0" shadow="0">
      <root>
        <mxCell id="0" />
        <mxCell id="1" parent="0" />
        <mxCell id="TxogU5_3Bv56Hh9R4giH-1" value="&lt;p style=&quot;margin:0px;margin-top:4px;text-align:center;&quot;&gt;&lt;i&gt;&amp;lt;&amp;lt;Interface&amp;gt;&amp;gt;&lt;/i&gt;&lt;br&gt;&lt;i style=&quot;border-color: var(--border-color);&quot;&gt;&lt;b&gt;ITypeOfObjectRepository&lt;/b&gt;&lt;/i&gt;&lt;br&gt;&lt;/p&gt;&lt;hr size=&quot;1&quot;&gt;&lt;p style=&quot;margin:0px;margin-left:4px;&quot;&gt;&lt;br&gt;&lt;/p&gt;" style="verticalAlign=top;align=left;overflow=fill;fontSize=12;fontFamily=Helvetica;html=1;whiteSpace=wrap;" vertex="1" parent="1">
          <mxGeometry x="590" y="526" width="190" height="50" as="geometry" />
        </mxCell>
        <mxCell id="TxogU5_3Bv56Hh9R4giH-2" value="&lt;p style=&quot;margin:0px;margin-top:4px;text-align:center;&quot;&gt;&lt;i&gt;&amp;lt;&amp;lt;Interface&amp;gt;&amp;gt;&lt;/i&gt;&lt;br&gt;&lt;b&gt;&lt;i style=&quot;border-color: var(--border-color);&quot;&gt;ITypeOfObjectService&lt;/i&gt;&lt;br&gt;&lt;/b&gt;&lt;/p&gt;&lt;hr size=&quot;1&quot;&gt;&lt;p style=&quot;border-color: var(--border-color); margin: 0px 0px 0px 4px;&quot;&gt;+ All()&lt;br style=&quot;border-color: var(--border-color);&quot;&gt;+ FinfById()&lt;/p&gt;&lt;p style=&quot;border-color: var(--border-color); margin: 0px 0px 0px 4px;&quot;&gt;+ Save()&lt;/p&gt;&lt;p style=&quot;border-color: var(--border-color); margin: 0px 0px 0px 4px;&quot;&gt;+ Update()&amp;nbsp;&lt;/p&gt;&lt;p style=&quot;border-color: var(--border-color); margin: 0px 0px 0px 4px;&quot;&gt;+ Delete()&lt;/p&gt;" style="verticalAlign=top;align=left;overflow=fill;fontSize=12;fontFamily=Helvetica;html=1;whiteSpace=wrap;" vertex="1" parent="1">
          <mxGeometry x="20" y="250" width="190" height="140" as="geometry" />
        </mxCell>
        <mxCell id="TxogU5_3Bv56Hh9R4giH-3" value="TypeOfItem" style="swimlane;fontStyle=1;align=center;verticalAlign=top;childLayout=stackLayout;horizontal=1;startSize=26;horizontalStack=0;resizeParent=1;resizeParentMax=0;resizeLast=0;collapsible=1;marginBottom=0;whiteSpace=wrap;html=1;" vertex="1" parent="1">
          <mxGeometry x="330" y="260" width="160" height="144" as="geometry" />
        </mxCell>
        <mxCell id="TxogU5_3Bv56Hh9R4giH-4" value="+ Name: String&lt;br&gt;&lt;br&gt;//Setter and Getter" style="text;strokeColor=none;fillColor=none;align=left;verticalAlign=top;spacingLeft=4;spacingRight=4;overflow=hidden;rotatable=0;points=[[0,0.5],[1,0.5]];portConstraint=eastwest;whiteSpace=wrap;html=1;" vertex="1" parent="TxogU5_3Bv56Hh9R4giH-3">
          <mxGeometry y="26" width="160" height="64" as="geometry" />
        </mxCell>
        <mxCell id="TxogU5_3Bv56Hh9R4giH-5" value="" style="line;strokeWidth=1;fillColor=none;align=left;verticalAlign=middle;spacingTop=-1;spacingLeft=3;spacingRight=3;rotatable=0;labelPosition=right;points=[];portConstraint=eastwest;strokeColor=inherit;" vertex="1" parent="TxogU5_3Bv56Hh9R4giH-3">
          <mxGeometry y="90" width="160" height="8" as="geometry" />
        </mxCell>
        <mxCell id="TxogU5_3Bv56Hh9R4giH-6" value="&lt;br&gt;+ ToDTO(TypeOfItemDTO)" style="text;strokeColor=none;fillColor=none;align=left;verticalAlign=top;spacingLeft=4;spacingRight=4;overflow=hidden;rotatable=0;points=[[0,0.5],[1,0.5]];portConstraint=eastwest;whiteSpace=wrap;html=1;" vertex="1" parent="TxogU5_3Bv56Hh9R4giH-3">
          <mxGeometry y="98" width="160" height="46" as="geometry" />
        </mxCell>
        <mxCell id="TxogU5_3Bv56Hh9R4giH-7" value="TypeOfObjectDTO" style="swimlane;fontStyle=1;align=center;verticalAlign=top;childLayout=stackLayout;horizontal=1;startSize=26;horizontalStack=0;resizeParent=1;resizeParentMax=0;resizeLast=0;collapsible=1;marginBottom=0;whiteSpace=wrap;html=1;" vertex="1" parent="1">
          <mxGeometry x="630" y="250" width="160" height="134" as="geometry" />
        </mxCell>
        <mxCell id="TxogU5_3Bv56Hh9R4giH-8" value="+ Name: type&lt;br style=&quot;border-color: var(--border-color);&quot;&gt;+ Id: Long&lt;br&gt;&lt;br&gt;//Setter and Getter" style="text;strokeColor=none;fillColor=none;align=left;verticalAlign=top;spacingLeft=4;spacingRight=4;overflow=hidden;rotatable=0;points=[[0,0.5],[1,0.5]];portConstraint=eastwest;whiteSpace=wrap;html=1;" vertex="1" parent="TxogU5_3Bv56Hh9R4giH-7">
          <mxGeometry y="26" width="160" height="74" as="geometry" />
        </mxCell>
        <mxCell id="TxogU5_3Bv56Hh9R4giH-9" value="" style="line;strokeWidth=1;fillColor=none;align=left;verticalAlign=middle;spacingTop=-1;spacingLeft=3;spacingRight=3;rotatable=0;labelPosition=right;points=[];portConstraint=eastwest;strokeColor=inherit;" vertex="1" parent="TxogU5_3Bv56Hh9R4giH-7">
          <mxGeometry y="100" width="160" height="8" as="geometry" />
        </mxCell>
        <mxCell id="TxogU5_3Bv56Hh9R4giH-10" value="+ TypeOfObjectDTO()" style="text;strokeColor=none;fillColor=none;align=left;verticalAlign=top;spacingLeft=4;spacingRight=4;overflow=hidden;rotatable=0;points=[[0,0.5],[1,0.5]];portConstraint=eastwest;whiteSpace=wrap;html=1;" vertex="1" parent="TxogU5_3Bv56Hh9R4giH-7">
          <mxGeometry y="108" width="160" height="26" as="geometry" />
        </mxCell>
        <mxCell id="TxogU5_3Bv56Hh9R4giH-11" value="TypeOfObjectService" style="swimlane;fontStyle=1;align=center;verticalAlign=top;childLayout=stackLayout;horizontal=1;startSize=22;horizontalStack=0;resizeParent=1;resizeParentMax=0;resizeLast=0;collapsible=1;marginBottom=0;whiteSpace=wrap;html=1;" vertex="1" parent="1">
          <mxGeometry x="70" y="536" width="160" height="40" as="geometry" />
        </mxCell>
        <mxCell id="TxogU5_3Bv56Hh9R4giH-12" value="" style="line;strokeWidth=1;fillColor=none;align=left;verticalAlign=middle;spacingTop=-1;spacingLeft=3;spacingRight=3;rotatable=0;labelPosition=right;points=[];portConstraint=eastwest;strokeColor=inherit;" vertex="1" parent="TxogU5_3Bv56Hh9R4giH-11">
          <mxGeometry y="22" width="160" height="18" as="geometry" />
        </mxCell>
        <mxCell id="TxogU5_3Bv56Hh9R4giH-13" value="TypeOfObjectController" style="swimlane;fontStyle=1;align=center;verticalAlign=top;childLayout=stackLayout;horizontal=1;startSize=26;horizontalStack=0;resizeParent=1;resizeParentMax=0;resizeLast=0;collapsible=1;marginBottom=0;whiteSpace=wrap;html=1;" vertex="1" parent="1">
          <mxGeometry x="320" y="40" width="160" height="130" as="geometry" />
        </mxCell>
        <mxCell id="TxogU5_3Bv56Hh9R4giH-14" value="+ field: type" style="text;strokeColor=none;fillColor=none;align=left;verticalAlign=top;spacingLeft=4;spacingRight=4;overflow=hidden;rotatable=0;points=[[0,0.5],[1,0.5]];portConstraint=eastwest;whiteSpace=wrap;html=1;" vertex="1" parent="TxogU5_3Bv56Hh9R4giH-13">
          <mxGeometry y="26" width="160" height="6" as="geometry" />
        </mxCell>
        <mxCell id="TxogU5_3Bv56Hh9R4giH-15" value="" style="line;strokeWidth=1;fillColor=none;align=left;verticalAlign=middle;spacingTop=-1;spacingLeft=3;spacingRight=3;rotatable=0;labelPosition=right;points=[];portConstraint=eastwest;strokeColor=inherit;" vertex="1" parent="TxogU5_3Bv56Hh9R4giH-13">
          <mxGeometry y="32" width="160" height="8" as="geometry" />
        </mxCell>
        <mxCell id="TxogU5_3Bv56Hh9R4giH-16" value="&lt;p style=&quot;border-color: var(--border-color); margin: 0px 0px 0px 4px;&quot;&gt;+ All()&lt;br style=&quot;border-color: var(--border-color);&quot;&gt;+ FinfById()&lt;/p&gt;&lt;p style=&quot;border-color: var(--border-color); margin: 0px 0px 0px 4px;&quot;&gt;+ Save()&lt;/p&gt;&lt;p style=&quot;border-color: var(--border-color); margin: 0px 0px 0px 4px;&quot;&gt;+ Update()&lt;/p&gt;&lt;p style=&quot;border-color: var(--border-color); margin: 0px 0px 0px 4px;&quot;&gt;+ Delete()&lt;/p&gt;&lt;p style=&quot;border-color: var(--border-color); margin: 0px 0px 0px 4px;&quot;&gt;&lt;br&gt;&lt;/p&gt;" style="text;strokeColor=none;fillColor=none;align=left;verticalAlign=top;spacingLeft=4;spacingRight=4;overflow=hidden;rotatable=0;points=[[0,0.5],[1,0.5]];portConstraint=eastwest;whiteSpace=wrap;html=1;" vertex="1" parent="TxogU5_3Bv56Hh9R4giH-13">
          <mxGeometry y="40" width="160" height="90" as="geometry" />
        </mxCell>
        <mxCell id="TxogU5_3Bv56Hh9R4giH-17" value="&amp;lt;&amp;lt;Abstract&amp;gt;&amp;gt;&lt;br&gt;&lt;b&gt;GenericId&lt;/b&gt;" style="swimlane;fontStyle=0;childLayout=stackLayout;horizontal=1;startSize=26;fillColor=none;horizontalStack=0;resizeParent=1;resizeParentMax=0;resizeLast=0;collapsible=1;marginBottom=0;whiteSpace=wrap;html=1;" vertex="1" parent="1">
          <mxGeometry x="340" y="530" width="140" height="52" as="geometry" />
        </mxCell>
        <mxCell id="TxogU5_3Bv56Hh9R4giH-18" value="+ Id: Long" style="text;strokeColor=none;fillColor=none;align=left;verticalAlign=top;spacingLeft=4;spacingRight=4;overflow=hidden;rotatable=0;points=[[0,0.5],[1,0.5]];portConstraint=eastwest;whiteSpace=wrap;html=1;" vertex="1" parent="TxogU5_3Bv56Hh9R4giH-17">
          <mxGeometry y="26" width="140" height="26" as="geometry" />
        </mxCell>
        <mxCell id="TxogU5_3Bv56Hh9R4giH-19" value="Extends" style="endArrow=block;endSize=16;endFill=0;html=1;rounded=0;" edge="1" parent="1" source="TxogU5_3Bv56Hh9R4giH-3" target="TxogU5_3Bv56Hh9R4giH-17">
          <mxGeometry width="160" relative="1" as="geometry">
            <mxPoint x="340" y="480" as="sourcePoint" />
            <mxPoint x="440" y="110" as="targetPoint" />
          </mxGeometry>
        </mxCell>
        <mxCell id="TxogU5_3Bv56Hh9R4giH-20" value="Implements" style="endArrow=block;endSize=16;endFill=0;html=1;rounded=0;" edge="1" parent="1" source="TxogU5_3Bv56Hh9R4giH-11" target="TxogU5_3Bv56Hh9R4giH-2">
          <mxGeometry width="160" relative="1" as="geometry">
            <mxPoint x="165" y="566" as="sourcePoint" />
            <mxPoint x="500" y="180" as="targetPoint" />
          </mxGeometry>
        </mxCell>
        <mxCell id="TxogU5_3Bv56Hh9R4giH-21" value="Use" style="endArrow=open;endSize=12;dashed=1;html=1;rounded=0;" edge="1" parent="1" source="TxogU5_3Bv56Hh9R4giH-13" target="TxogU5_3Bv56Hh9R4giH-2">
          <mxGeometry width="160" relative="1" as="geometry">
            <mxPoint x="340" y="280" as="sourcePoint" />
            <mxPoint x="500" y="280" as="targetPoint" />
          </mxGeometry>
        </mxCell>
        <mxCell id="TxogU5_3Bv56Hh9R4giH-22" value="Use" style="endArrow=open;endSize=12;dashed=1;html=1;rounded=0;entryX=0.344;entryY=-0.005;entryDx=0;entryDy=0;entryPerimeter=0;" edge="1" parent="1" source="TxogU5_3Bv56Hh9R4giH-13" target="TxogU5_3Bv56Hh9R4giH-7">
          <mxGeometry width="160" relative="1" as="geometry">
            <mxPoint x="340" y="280" as="sourcePoint" />
            <mxPoint x="500" y="280" as="targetPoint" />
          </mxGeometry>
        </mxCell>
        <mxCell id="TxogU5_3Bv56Hh9R4giH-23" value="Use" style="endArrow=open;endSize=12;dashed=1;html=1;rounded=0;" edge="1" parent="1" source="TxogU5_3Bv56Hh9R4giH-13" target="TxogU5_3Bv56Hh9R4giH-3">
          <mxGeometry width="160" relative="1" as="geometry">
            <mxPoint x="340" y="280" as="sourcePoint" />
            <mxPoint x="500" y="280" as="targetPoint" />
          </mxGeometry>
        </mxCell>
        <mxCell id="TxogU5_3Bv56Hh9R4giH-24" value="Use" style="endArrow=open;endSize=12;dashed=1;html=1;rounded=0;" edge="1" parent="1" source="TxogU5_3Bv56Hh9R4giH-11" target="TxogU5_3Bv56Hh9R4giH-3">
          <mxGeometry width="160" relative="1" as="geometry">
            <mxPoint x="340" y="400" as="sourcePoint" />
            <mxPoint x="500" y="400" as="targetPoint" />
          </mxGeometry>
        </mxCell>
        <mxCell id="TxogU5_3Bv56Hh9R4giH-25" value="Use" style="endArrow=open;endSize=12;dashed=1;html=1;rounded=0;" edge="1" parent="1" source="TxogU5_3Bv56Hh9R4giH-2" target="TxogU5_3Bv56Hh9R4giH-3">
          <mxGeometry width="160" relative="1" as="geometry">
            <mxPoint x="340" y="400" as="sourcePoint" />
            <mxPoint x="500" y="400" as="targetPoint" />
          </mxGeometry>
        </mxCell>
        <mxCell id="TxogU5_3Bv56Hh9R4giH-26" value="Use" style="endArrow=open;endSize=12;dashed=1;html=1;rounded=0;" edge="1" parent="1" source="TxogU5_3Bv56Hh9R4giH-1" target="TxogU5_3Bv56Hh9R4giH-3">
          <mxGeometry width="160" relative="1" as="geometry">
            <mxPoint x="340" y="600" as="sourcePoint" />
            <mxPoint x="500" y="600" as="targetPoint" />
          </mxGeometry>
        </mxCell>
        <mxCell id="TxogU5_3Bv56Hh9R4giH-27" value="JpaRepository" style="ellipse;whiteSpace=wrap;html=1;" vertex="1" parent="1">
          <mxGeometry x="330" y="640" width="140" height="70" as="geometry" />
        </mxCell>
        <mxCell id="TxogU5_3Bv56Hh9R4giH-28" value="Use" style="endArrow=open;endSize=12;dashed=1;html=1;rounded=0;" edge="1" parent="1" source="TxogU5_3Bv56Hh9R4giH-1" target="TxogU5_3Bv56Hh9R4giH-27">
          <mxGeometry width="160" relative="1" as="geometry">
            <mxPoint x="340" y="600" as="sourcePoint" />
            <mxPoint x="500" y="600" as="targetPoint" />
          </mxGeometry>
        </mxCell>
        <mxCell id="TxogU5_3Bv56Hh9R4giH-29" value="Use" style="endArrow=open;endSize=12;dashed=1;html=1;rounded=0;" edge="1" parent="1" source="TxogU5_3Bv56Hh9R4giH-3" target="TxogU5_3Bv56Hh9R4giH-7">
          <mxGeometry width="160" relative="1" as="geometry">
            <mxPoint x="340" y="300" as="sourcePoint" />
            <mxPoint x="500" y="300" as="targetPoint" />
          </mxGeometry>
        </mxCell>
      </root>
    </mxGraphModel>
  </diagram>
  <diagram id="PzDFxOagwnFMz1m737yU" name="PersonObject">
    <mxGraphModel dx="952" dy="537" grid="1" gridSize="10" guides="1" tooltips="1" connect="1" arrows="1" fold="1" page="1" pageScale="1" pageWidth="827" pageHeight="1169" math="0" shadow="0">
      <root>
        <mxCell id="0" />
        <mxCell id="1" parent="0" />
        <mxCell id="1pZh6c0-JuAujudAQrYW-1" value="&lt;p style=&quot;margin:0px;margin-top:4px;text-align:center;&quot;&gt;&lt;i&gt;&amp;lt;&amp;lt;Interface&amp;gt;&amp;gt;&lt;/i&gt;&lt;br&gt;&lt;i style=&quot;border-color: var(--border-color);&quot;&gt;&lt;b&gt;IPersonObjectRepository&lt;/b&gt;&lt;/i&gt;&lt;/p&gt;&lt;hr size=&quot;1&quot;&gt;&lt;p style=&quot;margin:0px;margin-left:4px;&quot;&gt;+&amp;nbsp;getPersonReport&lt;span style=&quot;background-color: initial;&quot;&gt;()&lt;/span&gt;&lt;/p&gt;" style="verticalAlign=top;align=left;overflow=fill;fontSize=12;fontFamily=Helvetica;html=1;whiteSpace=wrap;" vertex="1" parent="1">
          <mxGeometry x="590" y="512" width="190" height="70" as="geometry" />
        </mxCell>
        <mxCell id="1pZh6c0-JuAujudAQrYW-2" value="&lt;p style=&quot;margin:0px;margin-top:4px;text-align:center;&quot;&gt;&lt;i&gt;&amp;lt;&amp;lt;Interface&amp;gt;&amp;gt;&lt;/i&gt;&lt;br&gt;&lt;i style=&quot;border-color: var(--border-color);&quot;&gt;&lt;b&gt;IPersonObjectService&lt;/b&gt;&lt;/i&gt;&lt;br&gt;&lt;/p&gt;&lt;hr size=&quot;1&quot;&gt;&lt;p style=&quot;border-color: var(--border-color); margin: 0px 0px 0px 4px;&quot;&gt;+ All()&lt;br style=&quot;border-color: var(--border-color);&quot;&gt;+ FinfById()&lt;/p&gt;&lt;p style=&quot;border-color: var(--border-color); margin: 0px 0px 0px 4px;&quot;&gt;+ Save()&lt;/p&gt;&lt;p style=&quot;border-color: var(--border-color); margin: 0px 0px 0px 4px;&quot;&gt;+ Update()&amp;nbsp;&lt;/p&gt;&lt;p style=&quot;border-color: var(--border-color); margin: 0px 0px 0px 4px;&quot;&gt;+ Delete()&lt;/p&gt;&lt;p style=&quot;border-color: var(--border-color); margin: 0px 0px 0px 4px;&quot;&gt;+ GetPersonReport()&lt;/p&gt;" style="verticalAlign=top;align=left;overflow=fill;fontSize=12;fontFamily=Helvetica;html=1;whiteSpace=wrap;" vertex="1" parent="1">
          <mxGeometry x="20" y="250" width="190" height="140" as="geometry" />
        </mxCell>
        <mxCell id="1pZh6c0-JuAujudAQrYW-3" value="PersonObject" style="swimlane;fontStyle=1;align=center;verticalAlign=top;childLayout=stackLayout;horizontal=1;startSize=26;horizontalStack=0;resizeParent=1;resizeParentMax=0;resizeLast=0;collapsible=1;marginBottom=0;whiteSpace=wrap;html=1;" vertex="1" parent="1">
          <mxGeometry x="330" y="260" width="160" height="188" as="geometry" />
        </mxCell>
        <mxCell id="1pZh6c0-JuAujudAQrYW-4" value="+ Id_person: idPerson&lt;br&gt;+ Id_item: idItem&lt;br&gt;+ Time: LocalDateTime&lt;br&gt;+ Register_type: Boolean&lt;br&gt;&lt;br&gt;//Setter and Getter" style="text;strokeColor=none;fillColor=none;align=left;verticalAlign=top;spacingLeft=4;spacingRight=4;overflow=hidden;rotatable=0;points=[[0,0.5],[1,0.5]];portConstraint=eastwest;whiteSpace=wrap;html=1;" vertex="1" parent="1pZh6c0-JuAujudAQrYW-3">
          <mxGeometry y="26" width="160" height="114" as="geometry" />
        </mxCell>
        <mxCell id="1pZh6c0-JuAujudAQrYW-5" value="" style="line;strokeWidth=1;fillColor=none;align=left;verticalAlign=middle;spacingTop=-1;spacingLeft=3;spacingRight=3;rotatable=0;labelPosition=right;points=[];portConstraint=eastwest;strokeColor=inherit;" vertex="1" parent="1pZh6c0-JuAujudAQrYW-3">
          <mxGeometry y="140" width="160" height="8" as="geometry" />
        </mxCell>
        <mxCell id="1pZh6c0-JuAujudAQrYW-6" value="+ToDTO(PersonObjectDTO)" style="text;strokeColor=none;fillColor=none;align=left;verticalAlign=top;spacingLeft=4;spacingRight=4;overflow=hidden;rotatable=0;points=[[0,0.5],[1,0.5]];portConstraint=eastwest;whiteSpace=wrap;html=1;" vertex="1" parent="1pZh6c0-JuAujudAQrYW-3">
          <mxGeometry y="148" width="160" height="40" as="geometry" />
        </mxCell>
        <mxCell id="1pZh6c0-JuAujudAQrYW-7" value="PersonObjectDTO" style="swimlane;fontStyle=1;align=center;verticalAlign=top;childLayout=stackLayout;horizontal=1;startSize=26;horizontalStack=0;resizeParent=1;resizeParentMax=0;resizeLast=0;collapsible=1;marginBottom=0;whiteSpace=wrap;html=1;" vertex="1" parent="1">
          <mxGeometry x="630" y="250" width="160" height="164" as="geometry" />
        </mxCell>
        <mxCell id="1pZh6c0-JuAujudAQrYW-8" value="+ Id_person: idPerson&lt;br style=&quot;border-color: var(--border-color);&quot;&gt;+ Id_item: idItem&lt;br style=&quot;border-color: var(--border-color);&quot;&gt;+ Time: LocalDateTime&lt;br style=&quot;border-color: var(--border-color);&quot;&gt;+ Register_type: Boolean&lt;br style=&quot;border-color: var(--border-color);&quot;&gt;&lt;br style=&quot;border-color: var(--border-color);&quot;&gt;//Setter and Getter" style="text;strokeColor=none;fillColor=none;align=left;verticalAlign=top;spacingLeft=4;spacingRight=4;overflow=hidden;rotatable=0;points=[[0,0.5],[1,0.5]];portConstraint=eastwest;whiteSpace=wrap;html=1;" vertex="1" parent="1pZh6c0-JuAujudAQrYW-7">
          <mxGeometry y="26" width="160" height="104" as="geometry" />
        </mxCell>
        <mxCell id="1pZh6c0-JuAujudAQrYW-9" value="" style="line;strokeWidth=1;fillColor=none;align=left;verticalAlign=middle;spacingTop=-1;spacingLeft=3;spacingRight=3;rotatable=0;labelPosition=right;points=[];portConstraint=eastwest;strokeColor=inherit;" vertex="1" parent="1pZh6c0-JuAujudAQrYW-7">
          <mxGeometry y="130" width="160" height="8" as="geometry" />
        </mxCell>
        <mxCell id="1pZh6c0-JuAujudAQrYW-10" value="+ PersonObjectDTO()" style="text;strokeColor=none;fillColor=none;align=left;verticalAlign=top;spacingLeft=4;spacingRight=4;overflow=hidden;rotatable=0;points=[[0,0.5],[1,0.5]];portConstraint=eastwest;whiteSpace=wrap;html=1;" vertex="1" parent="1pZh6c0-JuAujudAQrYW-7">
          <mxGeometry y="138" width="160" height="26" as="geometry" />
        </mxCell>
        <mxCell id="1pZh6c0-JuAujudAQrYW-11" value="PersonObjectService" style="swimlane;fontStyle=1;align=center;verticalAlign=top;childLayout=stackLayout;horizontal=1;startSize=22;horizontalStack=0;resizeParent=1;resizeParentMax=0;resizeLast=0;collapsible=1;marginBottom=0;whiteSpace=wrap;html=1;" vertex="1" parent="1">
          <mxGeometry x="49" y="536" width="160" height="40" as="geometry" />
        </mxCell>
        <mxCell id="1pZh6c0-JuAujudAQrYW-12" value="" style="line;strokeWidth=1;fillColor=none;align=left;verticalAlign=middle;spacingTop=-1;spacingLeft=3;spacingRight=3;rotatable=0;labelPosition=right;points=[];portConstraint=eastwest;strokeColor=inherit;" vertex="1" parent="1pZh6c0-JuAujudAQrYW-11">
          <mxGeometry y="22" width="160" height="18" as="geometry" />
        </mxCell>
        <mxCell id="1pZh6c0-JuAujudAQrYW-13" value="PersonObjectController" style="swimlane;fontStyle=1;align=center;verticalAlign=top;childLayout=stackLayout;horizontal=1;startSize=26;horizontalStack=0;resizeParent=1;resizeParentMax=0;resizeLast=0;collapsible=1;marginBottom=0;whiteSpace=wrap;html=1;" vertex="1" parent="1">
          <mxGeometry x="320" y="40" width="160" height="170" as="geometry" />
        </mxCell>
        <mxCell id="1pZh6c0-JuAujudAQrYW-14" value="+ field: type" style="text;strokeColor=none;fillColor=none;align=left;verticalAlign=top;spacingLeft=4;spacingRight=4;overflow=hidden;rotatable=0;points=[[0,0.5],[1,0.5]];portConstraint=eastwest;whiteSpace=wrap;html=1;" vertex="1" parent="1pZh6c0-JuAujudAQrYW-13">
          <mxGeometry y="26" width="160" height="6" as="geometry" />
        </mxCell>
        <mxCell id="1pZh6c0-JuAujudAQrYW-15" value="" style="line;strokeWidth=1;fillColor=none;align=left;verticalAlign=middle;spacingTop=-1;spacingLeft=3;spacingRight=3;rotatable=0;labelPosition=right;points=[];portConstraint=eastwest;strokeColor=inherit;" vertex="1" parent="1pZh6c0-JuAujudAQrYW-13">
          <mxGeometry y="32" width="160" height="8" as="geometry" />
        </mxCell>
        <mxCell id="1pZh6c0-JuAujudAQrYW-16" value="&lt;p style=&quot;border-color: var(--border-color); margin: 0px 0px 0px 4px;&quot;&gt;+ All()&lt;br style=&quot;border-color: var(--border-color);&quot;&gt;+ FinfById()&lt;/p&gt;&lt;p style=&quot;border-color: var(--border-color); margin: 0px 0px 0px 4px;&quot;&gt;+ Save()&lt;/p&gt;&lt;p style=&quot;border-color: var(--border-color); margin: 0px 0px 0px 4px;&quot;&gt;+ Update()&lt;/p&gt;&lt;p style=&quot;border-color: var(--border-color); margin: 0px 0px 0px 4px;&quot;&gt;+ Delete()&lt;/p&gt;&lt;p style=&quot;border-color: var(--border-color); margin: 0px 0px 0px 4px;&quot;&gt;+ GetPersonReport&lt;span style=&quot;background-color: initial;&quot;&gt;()&lt;/span&gt;&lt;/p&gt;&lt;p style=&quot;border-color: var(--border-color); margin: 0px 0px 0px 4px;&quot;&gt;&lt;span style=&quot;background-color: initial;&quot;&gt;+ RegisterEnter()&lt;/span&gt;&lt;/p&gt;&lt;p style=&quot;border-color: var(--border-color); margin: 0px 0px 0px 4px;&quot;&gt;&lt;span style=&quot;background-color: initial;&quot;&gt;+ R&lt;/span&gt;egisterExit()&lt;/p&gt;&lt;p style=&quot;border-color: var(--border-color); margin: 0px 0px 0px 4px;&quot;&gt;&lt;span style=&quot;background-color: initial;&quot;&gt;&lt;br&gt;&lt;/span&gt;&lt;/p&gt;" style="text;strokeColor=none;fillColor=none;align=left;verticalAlign=top;spacingLeft=4;spacingRight=4;overflow=hidden;rotatable=0;points=[[0,0.5],[1,0.5]];portConstraint=eastwest;whiteSpace=wrap;html=1;" vertex="1" parent="1pZh6c0-JuAujudAQrYW-13">
          <mxGeometry y="40" width="160" height="130" as="geometry" />
        </mxCell>
        <mxCell id="1pZh6c0-JuAujudAQrYW-17" value="&amp;lt;&amp;lt;Abstract&amp;gt;&amp;gt;&lt;br&gt;&lt;b&gt;GenericId&lt;/b&gt;" style="swimlane;fontStyle=0;childLayout=stackLayout;horizontal=1;startSize=26;fillColor=none;horizontalStack=0;resizeParent=1;resizeParentMax=0;resizeLast=0;collapsible=1;marginBottom=0;whiteSpace=wrap;html=1;" vertex="1" parent="1">
          <mxGeometry x="330" y="530" width="140" height="52" as="geometry" />
        </mxCell>
        <mxCell id="1pZh6c0-JuAujudAQrYW-18" value="+ Id: Long" style="text;strokeColor=none;fillColor=none;align=left;verticalAlign=top;spacingLeft=4;spacingRight=4;overflow=hidden;rotatable=0;points=[[0,0.5],[1,0.5]];portConstraint=eastwest;whiteSpace=wrap;html=1;" vertex="1" parent="1pZh6c0-JuAujudAQrYW-17">
          <mxGeometry y="26" width="140" height="26" as="geometry" />
        </mxCell>
        <mxCell id="1pZh6c0-JuAujudAQrYW-19" value="Extends" style="endArrow=block;endSize=16;endFill=0;html=1;rounded=0;" edge="1" parent="1" source="1pZh6c0-JuAujudAQrYW-3" target="1pZh6c0-JuAujudAQrYW-17">
          <mxGeometry width="160" relative="1" as="geometry">
            <mxPoint x="340" y="480" as="sourcePoint" />
            <mxPoint x="440" y="110" as="targetPoint" />
          </mxGeometry>
        </mxCell>
        <mxCell id="1pZh6c0-JuAujudAQrYW-20" value="Implements" style="endArrow=block;endSize=16;endFill=0;html=1;rounded=0;" edge="1" parent="1" source="1pZh6c0-JuAujudAQrYW-11" target="1pZh6c0-JuAujudAQrYW-2">
          <mxGeometry width="160" relative="1" as="geometry">
            <mxPoint x="165" y="566" as="sourcePoint" />
            <mxPoint x="500" y="180" as="targetPoint" />
          </mxGeometry>
        </mxCell>
        <mxCell id="1pZh6c0-JuAujudAQrYW-21" value="Use" style="endArrow=open;endSize=12;dashed=1;html=1;rounded=0;" edge="1" parent="1" source="1pZh6c0-JuAujudAQrYW-13" target="1pZh6c0-JuAujudAQrYW-2">
          <mxGeometry width="160" relative="1" as="geometry">
            <mxPoint x="340" y="280" as="sourcePoint" />
            <mxPoint x="500" y="280" as="targetPoint" />
          </mxGeometry>
        </mxCell>
        <mxCell id="1pZh6c0-JuAujudAQrYW-22" value="Use" style="endArrow=open;endSize=12;dashed=1;html=1;rounded=0;entryX=0.344;entryY=-0.005;entryDx=0;entryDy=0;entryPerimeter=0;" edge="1" parent="1" source="1pZh6c0-JuAujudAQrYW-13" target="1pZh6c0-JuAujudAQrYW-7">
          <mxGeometry width="160" relative="1" as="geometry">
            <mxPoint x="340" y="280" as="sourcePoint" />
            <mxPoint x="500" y="280" as="targetPoint" />
          </mxGeometry>
        </mxCell>
        <mxCell id="1pZh6c0-JuAujudAQrYW-23" value="Use" style="endArrow=open;endSize=12;dashed=1;html=1;rounded=0;" edge="1" parent="1" source="1pZh6c0-JuAujudAQrYW-13" target="1pZh6c0-JuAujudAQrYW-3">
          <mxGeometry width="160" relative="1" as="geometry">
            <mxPoint x="340" y="280" as="sourcePoint" />
            <mxPoint x="500" y="280" as="targetPoint" />
          </mxGeometry>
        </mxCell>
        <mxCell id="1pZh6c0-JuAujudAQrYW-24" value="Use" style="endArrow=open;endSize=12;dashed=1;html=1;rounded=0;" edge="1" parent="1" source="1pZh6c0-JuAujudAQrYW-11" target="1pZh6c0-JuAujudAQrYW-3">
          <mxGeometry width="160" relative="1" as="geometry">
            <mxPoint x="340" y="400" as="sourcePoint" />
            <mxPoint x="500" y="400" as="targetPoint" />
          </mxGeometry>
        </mxCell>
        <mxCell id="1pZh6c0-JuAujudAQrYW-25" value="Use" style="endArrow=open;endSize=12;dashed=1;html=1;rounded=0;" edge="1" parent="1" source="1pZh6c0-JuAujudAQrYW-2" target="1pZh6c0-JuAujudAQrYW-3">
          <mxGeometry width="160" relative="1" as="geometry">
            <mxPoint x="340" y="400" as="sourcePoint" />
            <mxPoint x="500" y="400" as="targetPoint" />
          </mxGeometry>
        </mxCell>
        <mxCell id="1pZh6c0-JuAujudAQrYW-26" value="Use" style="endArrow=open;endSize=12;dashed=1;html=1;rounded=0;" edge="1" parent="1" source="1pZh6c0-JuAujudAQrYW-1" target="1pZh6c0-JuAujudAQrYW-3">
          <mxGeometry width="160" relative="1" as="geometry">
            <mxPoint x="340" y="600" as="sourcePoint" />
            <mxPoint x="500" y="600" as="targetPoint" />
          </mxGeometry>
        </mxCell>
        <mxCell id="1pZh6c0-JuAujudAQrYW-27" value="JpaRepository" style="ellipse;whiteSpace=wrap;html=1;" vertex="1" parent="1">
          <mxGeometry x="330" y="640" width="140" height="70" as="geometry" />
        </mxCell>
        <mxCell id="1pZh6c0-JuAujudAQrYW-28" value="Use" style="endArrow=open;endSize=12;dashed=1;html=1;rounded=0;" edge="1" parent="1" source="1pZh6c0-JuAujudAQrYW-1" target="1pZh6c0-JuAujudAQrYW-27">
          <mxGeometry width="160" relative="1" as="geometry">
            <mxPoint x="340" y="600" as="sourcePoint" />
            <mxPoint x="500" y="600" as="targetPoint" />
          </mxGeometry>
        </mxCell>
        <mxCell id="1pZh6c0-JuAujudAQrYW-29" value="Use" style="endArrow=open;endSize=12;dashed=1;html=1;rounded=0;" edge="1" parent="1" source="1pZh6c0-JuAujudAQrYW-3" target="1pZh6c0-JuAujudAQrYW-7">
          <mxGeometry width="160" relative="1" as="geometry">
            <mxPoint x="340" y="300" as="sourcePoint" />
            <mxPoint x="500" y="300" as="targetPoint" />
          </mxGeometry>
        </mxCell>
      </root>
    </mxGraphModel>
  </diagram>
  <diagram id="aGLHfyIA7FYcj6AbXRqL" name="Item">
    <mxGraphModel dx="952" dy="537" grid="1" gridSize="10" guides="1" tooltips="1" connect="1" arrows="1" fold="1" page="1" pageScale="1" pageWidth="827" pageHeight="1169" math="0" shadow="0">
      <root>
        <mxCell id="0" />
        <mxCell id="1" parent="0" />
        <mxCell id="MGSkIrjonsBFRWUktGF1-1" value="&lt;p style=&quot;margin:0px;margin-top:4px;text-align:center;&quot;&gt;&lt;i&gt;&amp;lt;&amp;lt;Interface&amp;gt;&amp;gt;&lt;/i&gt;&lt;br&gt;&lt;i style=&quot;border-color: var(--border-color);&quot;&gt;&lt;b&gt;IItemsRepository&lt;/b&gt;&lt;/i&gt;&lt;/p&gt;&lt;hr size=&quot;1&quot;&gt;&lt;p style=&quot;margin:0px;margin-left:4px;&quot;&gt;+ TotalObjectsPerson()&lt;/p&gt;&lt;p style=&quot;margin:0px;margin-left:4px;&quot;&gt;+ TotalCompanyItems()&lt;/p&gt;&lt;p style=&quot;margin:0px;margin-left:4px;&quot;&gt;+&amp;nbsp;getItemsByType()&lt;/p&gt;" style="verticalAlign=top;align=left;overflow=fill;fontSize=12;fontFamily=Helvetica;html=1;whiteSpace=wrap;" vertex="1" parent="1">
          <mxGeometry x="590" y="510" width="190" height="90" as="geometry" />
        </mxCell>
        <mxCell id="MGSkIrjonsBFRWUktGF1-2" value="&lt;p style=&quot;margin:0px;margin-top:4px;text-align:center;&quot;&gt;&lt;i&gt;&amp;lt;&amp;lt;Interface&amp;gt;&amp;gt;&lt;/i&gt;&lt;br&gt;&lt;i style=&quot;border-color: var(--border-color);&quot;&gt;&lt;b&gt;IItemsService&lt;/b&gt;&lt;/i&gt;&lt;br&gt;&lt;/p&gt;&lt;hr size=&quot;1&quot;&gt;&lt;p style=&quot;border-color: var(--border-color); margin: 0px 0px 0px 4px;&quot;&gt;+ All()&lt;br style=&quot;border-color: var(--border-color);&quot;&gt;+ FinfById()&lt;/p&gt;&lt;p style=&quot;border-color: var(--border-color); margin: 0px 0px 0px 4px;&quot;&gt;+ Save()&amp;nbsp;&lt;/p&gt;&lt;p style=&quot;border-color: var(--border-color); margin: 0px 0px 0px 4px;&quot;&gt;+ Update()&amp;nbsp;&lt;/p&gt;&lt;p style=&quot;border-color: var(--border-color); margin: 0px 0px 0px 4px;&quot;&gt;+ Delete()&lt;/p&gt;&lt;p style=&quot;border-color: var(--border-color); margin: 0px 0px 0px 4px;&quot;&gt;&lt;br&gt;&lt;/p&gt;&lt;p style=&quot;border-color: var(--border-color); margin: 0px 0px 0px 4px;&quot;&gt;Methods:&lt;/p&gt;&lt;p style=&quot;border-color: var(--border-color); margin: 0px 0px 0px 4px;&quot;&gt;&lt;br&gt;&lt;/p&gt;&lt;p style=&quot;border-color: var(--border-color); margin: 0px 0px 0px 4px;&quot;&gt;+&amp;nbsp;getItemsByType()&lt;/p&gt;&lt;p style=&quot;border-color: var(--border-color); margin: 0px 0px 0px 4px;&quot;&gt;&lt;br&gt;&lt;/p&gt;" style="verticalAlign=top;align=left;overflow=fill;fontSize=12;fontFamily=Helvetica;html=1;whiteSpace=wrap;" vertex="1" parent="1">
          <mxGeometry x="20" y="250" width="190" height="210" as="geometry" />
        </mxCell>
        <mxCell id="MGSkIrjonsBFRWUktGF1-3" value="Item" style="swimlane;fontStyle=1;align=center;verticalAlign=top;childLayout=stackLayout;horizontal=1;startSize=26;horizontalStack=0;resizeParent=1;resizeParentMax=0;resizeLast=0;collapsible=1;marginBottom=0;whiteSpace=wrap;html=1;" vertex="1" parent="1">
          <mxGeometry x="330" y="260" width="160" height="170" as="geometry" />
        </mxCell>
        <mxCell id="MGSkIrjonsBFRWUktGF1-4" value="+ Id_type: IdType&lt;br&gt;+ Description: String&lt;br&gt;+ Reason: String&lt;br&gt;+ State: Boolean&lt;br&gt;&lt;br&gt;//Setter and Getter" style="text;strokeColor=none;fillColor=none;align=left;verticalAlign=top;spacingLeft=4;spacingRight=4;overflow=hidden;rotatable=0;points=[[0,0.5],[1,0.5]];portConstraint=eastwest;whiteSpace=wrap;html=1;" vertex="1" parent="MGSkIrjonsBFRWUktGF1-3">
          <mxGeometry y="26" width="160" height="104" as="geometry" />
        </mxCell>
        <mxCell id="MGSkIrjonsBFRWUktGF1-5" value="" style="line;strokeWidth=1;fillColor=none;align=left;verticalAlign=middle;spacingTop=-1;spacingLeft=3;spacingRight=3;rotatable=0;labelPosition=right;points=[];portConstraint=eastwest;strokeColor=inherit;" vertex="1" parent="MGSkIrjonsBFRWUktGF1-3">
          <mxGeometry y="130" width="160" height="8" as="geometry" />
        </mxCell>
        <mxCell id="MGSkIrjonsBFRWUktGF1-6" value="+ ToDTO(PersonDTO)" style="text;strokeColor=none;fillColor=none;align=left;verticalAlign=top;spacingLeft=4;spacingRight=4;overflow=hidden;rotatable=0;points=[[0,0.5],[1,0.5]];portConstraint=eastwest;whiteSpace=wrap;html=1;" vertex="1" parent="MGSkIrjonsBFRWUktGF1-3">
          <mxGeometry y="138" width="160" height="32" as="geometry" />
        </mxCell>
        <mxCell id="MGSkIrjonsBFRWUktGF1-7" value="ItemsDTO" style="swimlane;fontStyle=1;align=center;verticalAlign=top;childLayout=stackLayout;horizontal=1;startSize=26;horizontalStack=0;resizeParent=1;resizeParentMax=0;resizeLast=0;collapsible=1;marginBottom=0;whiteSpace=wrap;html=1;" vertex="1" parent="1">
          <mxGeometry x="630" y="250" width="160" height="200" as="geometry" />
        </mxCell>
        <mxCell id="MGSkIrjonsBFRWUktGF1-8" value="+ Name: String&lt;br style=&quot;border-color: var(--border-color);&quot;&gt;+ First_surname: String&lt;br style=&quot;border-color: var(--border-color);&quot;&gt;+ Second_surname: String&lt;br style=&quot;border-color: var(--border-color);&quot;&gt;+ Dni: String&lt;br style=&quot;border-color: var(--border-color);&quot;&gt;+ Phone: String&lt;br style=&quot;border-color: var(--border-color);&quot;&gt;+ Email: String&lt;br style=&quot;border-color: var(--border-color);&quot;&gt;+ Employee: Boolean&lt;br&gt;&lt;br&gt;//Setter and Getter" style="text;strokeColor=none;fillColor=none;align=left;verticalAlign=top;spacingLeft=4;spacingRight=4;overflow=hidden;rotatable=0;points=[[0,0.5],[1,0.5]];portConstraint=eastwest;whiteSpace=wrap;html=1;" vertex="1" parent="MGSkIrjonsBFRWUktGF1-7">
          <mxGeometry y="26" width="160" height="144" as="geometry" />
        </mxCell>
        <mxCell id="MGSkIrjonsBFRWUktGF1-9" value="" style="line;strokeWidth=1;fillColor=none;align=left;verticalAlign=middle;spacingTop=-1;spacingLeft=3;spacingRight=3;rotatable=0;labelPosition=right;points=[];portConstraint=eastwest;strokeColor=inherit;" vertex="1" parent="MGSkIrjonsBFRWUktGF1-7">
          <mxGeometry y="170" width="160" height="8" as="geometry" />
        </mxCell>
        <mxCell id="MGSkIrjonsBFRWUktGF1-10" value="+ ItemDTO()" style="text;strokeColor=none;fillColor=none;align=left;verticalAlign=top;spacingLeft=4;spacingRight=4;overflow=hidden;rotatable=0;points=[[0,0.5],[1,0.5]];portConstraint=eastwest;whiteSpace=wrap;html=1;" vertex="1" parent="MGSkIrjonsBFRWUktGF1-7">
          <mxGeometry y="178" width="160" height="22" as="geometry" />
        </mxCell>
        <mxCell id="MGSkIrjonsBFRWUktGF1-11" value="ItemsService" style="swimlane;fontStyle=1;align=center;verticalAlign=top;childLayout=stackLayout;horizontal=1;startSize=22;horizontalStack=0;resizeParent=1;resizeParentMax=0;resizeLast=0;collapsible=1;marginBottom=0;whiteSpace=wrap;html=1;" vertex="1" parent="1">
          <mxGeometry x="50" y="536" width="160" height="40" as="geometry" />
        </mxCell>
        <mxCell id="MGSkIrjonsBFRWUktGF1-12" value="" style="line;strokeWidth=1;fillColor=none;align=left;verticalAlign=middle;spacingTop=-1;spacingLeft=3;spacingRight=3;rotatable=0;labelPosition=right;points=[];portConstraint=eastwest;strokeColor=inherit;" vertex="1" parent="MGSkIrjonsBFRWUktGF1-11">
          <mxGeometry y="22" width="160" height="18" as="geometry" />
        </mxCell>
        <mxCell id="MGSkIrjonsBFRWUktGF1-13" value="ItemsController" style="swimlane;fontStyle=1;align=center;verticalAlign=top;childLayout=stackLayout;horizontal=1;startSize=26;horizontalStack=0;resizeParent=1;resizeParentMax=0;resizeLast=0;collapsible=1;marginBottom=0;whiteSpace=wrap;html=1;" vertex="1" parent="1">
          <mxGeometry x="320" y="40" width="160" height="130" as="geometry" />
        </mxCell>
        <mxCell id="MGSkIrjonsBFRWUktGF1-14" value="+ field: type" style="text;strokeColor=none;fillColor=none;align=left;verticalAlign=top;spacingLeft=4;spacingRight=4;overflow=hidden;rotatable=0;points=[[0,0.5],[1,0.5]];portConstraint=eastwest;whiteSpace=wrap;html=1;" vertex="1" parent="MGSkIrjonsBFRWUktGF1-13">
          <mxGeometry y="26" width="160" height="6" as="geometry" />
        </mxCell>
        <mxCell id="MGSkIrjonsBFRWUktGF1-15" value="" style="line;strokeWidth=1;fillColor=none;align=left;verticalAlign=middle;spacingTop=-1;spacingLeft=3;spacingRight=3;rotatable=0;labelPosition=right;points=[];portConstraint=eastwest;strokeColor=inherit;" vertex="1" parent="MGSkIrjonsBFRWUktGF1-13">
          <mxGeometry y="32" width="160" height="8" as="geometry" />
        </mxCell>
        <mxCell id="MGSkIrjonsBFRWUktGF1-16" value="&lt;p style=&quot;border-color: var(--border-color); margin: 0px 0px 0px 4px;&quot;&gt;+ All()&lt;br style=&quot;border-color: var(--border-color);&quot;&gt;+ FinfById()&lt;/p&gt;&lt;p style=&quot;border-color: var(--border-color); margin: 0px 0px 0px 4px;&quot;&gt;+ Save()&lt;/p&gt;&lt;p style=&quot;border-color: var(--border-color); margin: 0px 0px 0px 4px;&quot;&gt;+ Update()&lt;/p&gt;&lt;p style=&quot;border-color: var(--border-color); margin: 0px 0px 0px 4px;&quot;&gt;+ Delete()&lt;/p&gt;&lt;p style=&quot;border-color: var(--border-color); margin: 0px 0px 0px 4px;&quot;&gt;&lt;br&gt;&lt;/p&gt;" style="text;strokeColor=none;fillColor=none;align=left;verticalAlign=top;spacingLeft=4;spacingRight=4;overflow=hidden;rotatable=0;points=[[0,0.5],[1,0.5]];portConstraint=eastwest;whiteSpace=wrap;html=1;" vertex="1" parent="MGSkIrjonsBFRWUktGF1-13">
          <mxGeometry y="40" width="160" height="90" as="geometry" />
        </mxCell>
        <mxCell id="MGSkIrjonsBFRWUktGF1-17" value="&amp;lt;&amp;lt;Abstract&amp;gt;&amp;gt;&lt;br&gt;&lt;b&gt;GenericId&lt;/b&gt;" style="swimlane;fontStyle=0;childLayout=stackLayout;horizontal=1;startSize=26;fillColor=none;horizontalStack=0;resizeParent=1;resizeParentMax=0;resizeLast=0;collapsible=1;marginBottom=0;whiteSpace=wrap;html=1;" vertex="1" parent="1">
          <mxGeometry x="330" y="530" width="140" height="52" as="geometry" />
        </mxCell>
        <mxCell id="MGSkIrjonsBFRWUktGF1-18" value="+ Id: Long" style="text;strokeColor=none;fillColor=none;align=left;verticalAlign=top;spacingLeft=4;spacingRight=4;overflow=hidden;rotatable=0;points=[[0,0.5],[1,0.5]];portConstraint=eastwest;whiteSpace=wrap;html=1;" vertex="1" parent="MGSkIrjonsBFRWUktGF1-17">
          <mxGeometry y="26" width="140" height="26" as="geometry" />
        </mxCell>
        <mxCell id="MGSkIrjonsBFRWUktGF1-19" value="Extends" style="endArrow=block;endSize=16;endFill=0;html=1;rounded=0;" edge="1" parent="1" source="MGSkIrjonsBFRWUktGF1-3" target="MGSkIrjonsBFRWUktGF1-17">
          <mxGeometry width="160" relative="1" as="geometry">
            <mxPoint x="340" y="480" as="sourcePoint" />
            <mxPoint x="440" y="110" as="targetPoint" />
          </mxGeometry>
        </mxCell>
        <mxCell id="MGSkIrjonsBFRWUktGF1-20" value="Implements" style="endArrow=block;endSize=16;endFill=0;html=1;rounded=0;" edge="1" parent="1" target="MGSkIrjonsBFRWUktGF1-2">
          <mxGeometry width="160" relative="1" as="geometry">
            <mxPoint x="165" y="566" as="sourcePoint" />
            <mxPoint x="500" y="180" as="targetPoint" />
          </mxGeometry>
        </mxCell>
        <mxCell id="MGSkIrjonsBFRWUktGF1-21" value="Use" style="endArrow=open;endSize=12;dashed=1;html=1;rounded=0;" edge="1" parent="1" source="MGSkIrjonsBFRWUktGF1-13" target="MGSkIrjonsBFRWUktGF1-2">
          <mxGeometry width="160" relative="1" as="geometry">
            <mxPoint x="340" y="280" as="sourcePoint" />
            <mxPoint x="500" y="280" as="targetPoint" />
          </mxGeometry>
        </mxCell>
        <mxCell id="MGSkIrjonsBFRWUktGF1-22" value="Use" style="endArrow=open;endSize=12;dashed=1;html=1;rounded=0;entryX=0.344;entryY=-0.005;entryDx=0;entryDy=0;entryPerimeter=0;" edge="1" parent="1" source="MGSkIrjonsBFRWUktGF1-13" target="MGSkIrjonsBFRWUktGF1-7">
          <mxGeometry width="160" relative="1" as="geometry">
            <mxPoint x="340" y="280" as="sourcePoint" />
            <mxPoint x="500" y="280" as="targetPoint" />
          </mxGeometry>
        </mxCell>
        <mxCell id="MGSkIrjonsBFRWUktGF1-23" value="Use" style="endArrow=open;endSize=12;dashed=1;html=1;rounded=0;" edge="1" parent="1" source="MGSkIrjonsBFRWUktGF1-13" target="MGSkIrjonsBFRWUktGF1-3">
          <mxGeometry width="160" relative="1" as="geometry">
            <mxPoint x="340" y="280" as="sourcePoint" />
            <mxPoint x="500" y="280" as="targetPoint" />
          </mxGeometry>
        </mxCell>
        <mxCell id="MGSkIrjonsBFRWUktGF1-24" value="Use" style="endArrow=open;endSize=12;dashed=1;html=1;rounded=0;" edge="1" parent="1" source="MGSkIrjonsBFRWUktGF1-11" target="MGSkIrjonsBFRWUktGF1-3">
          <mxGeometry width="160" relative="1" as="geometry">
            <mxPoint x="340" y="400" as="sourcePoint" />
            <mxPoint x="500" y="400" as="targetPoint" />
          </mxGeometry>
        </mxCell>
        <mxCell id="MGSkIrjonsBFRWUktGF1-25" value="Use" style="endArrow=open;endSize=12;dashed=1;html=1;rounded=0;" edge="1" parent="1" source="MGSkIrjonsBFRWUktGF1-2" target="MGSkIrjonsBFRWUktGF1-3">
          <mxGeometry width="160" relative="1" as="geometry">
            <mxPoint x="340" y="400" as="sourcePoint" />
            <mxPoint x="500" y="400" as="targetPoint" />
          </mxGeometry>
        </mxCell>
        <mxCell id="MGSkIrjonsBFRWUktGF1-26" value="Use" style="endArrow=open;endSize=12;dashed=1;html=1;rounded=0;" edge="1" parent="1" source="MGSkIrjonsBFRWUktGF1-1" target="MGSkIrjonsBFRWUktGF1-3">
          <mxGeometry width="160" relative="1" as="geometry">
            <mxPoint x="340" y="600" as="sourcePoint" />
            <mxPoint x="500" y="600" as="targetPoint" />
          </mxGeometry>
        </mxCell>
        <mxCell id="MGSkIrjonsBFRWUktGF1-27" value="JpaRepository" style="ellipse;whiteSpace=wrap;html=1;" vertex="1" parent="1">
          <mxGeometry x="330" y="640" width="140" height="70" as="geometry" />
        </mxCell>
        <mxCell id="MGSkIrjonsBFRWUktGF1-28" value="Use" style="endArrow=open;endSize=12;dashed=1;html=1;rounded=0;" edge="1" parent="1" source="MGSkIrjonsBFRWUktGF1-1" target="MGSkIrjonsBFRWUktGF1-27">
          <mxGeometry width="160" relative="1" as="geometry">
            <mxPoint x="340" y="600" as="sourcePoint" />
            <mxPoint x="500" y="600" as="targetPoint" />
          </mxGeometry>
        </mxCell>
        <mxCell id="MGSkIrjonsBFRWUktGF1-29" value="Use" style="endArrow=open;endSize=12;dashed=1;html=1;rounded=0;" edge="1" parent="1" source="MGSkIrjonsBFRWUktGF1-3" target="MGSkIrjonsBFRWUktGF1-7">
          <mxGeometry width="160" relative="1" as="geometry">
            <mxPoint x="340" y="300" as="sourcePoint" />
            <mxPoint x="500" y="300" as="targetPoint" />
          </mxGeometry>
        </mxCell>
      </root>
    </mxGraphModel>
  </diagram>
</mxfile>
